<!DOCTYPE svg PUBLIC "-//W3C//DTD SVG 1.1//EN" "http://www.w3.org/Graphics/SVG/1.1/DTD/svg11.dtd">
<!-- Uploaded to: SVG Repo, www.svgrepo.com, Transformed by: SVG Repo Mixer Tools -->
<svg width="800px" height="800px" viewBox="-6.4 -6.4 76.80 76.80" enable-background="new 0 0 64 64" version="1.1" xml:space="preserve" xmlns="http://www.w3.org/2000/svg" xmlns:xlink="http://www.w3.org/1999/xlink" fill="#000000" stroke="#000000" stroke-width="1.92">
<g id="SVGRepo_bgCarrier" stroke-width="0" transform="translate(0,0), scale(1)">
<rect x="-6.4" y="-6.4" width="76.80" height="76.80" rx="15.36" fill="#7ed0ec" strokewidth="0"/>
</g>
<g id="SVGRepo_tracerCarrier" stroke-linecap="round" stroke-linejoin="round" stroke="#CCCCCC" stroke-width="0.128"/>
<g id="SVGRepo_iconCarrier"> <g id="Home"/> <g id="Camera"/> <g id="Mail"/> <g id="Print"/> <g id="Save"/> <g id="Folder"> <g> <path d="M62,18v38c0,3.3-2.7,6-6,6H8c-3.3,0-6-2.7-6-6V8c0-3.3,2.7-6,6-6h15.7c2.1,0,4,1.1,5.1,2.9l3.7,6.1 c0.4,0.6,1,1,1.7,1H56C59.3,12,62,14.7,62,18z" fill="#FE9803"/> </g> <g> <path d="M34.3,12H2V8c0-3.3,2.7-6,6-6h15.7c2.1,0,4,1.1,5.1,2.9l3.7,6.1C32.9,11.6,33.6,12,34.3,12z" fill="#785548"/> </g> <polyline fill="none" points="36,12 34.3,12 34.3,12 "/> </g> <g id="Search"/> <g id="User"/> <g id="Pin"/> <g id="Calendar"/> <g id="Gallery"/> <g id="time"/> <g id="Pin_1_"/> <g id="Setting"/> <g id="Player"/> <g id="Lock"/> <g id="Trash_Can"/> <g id="Notification"/> <g id="Record"/> <g id="Shopping_Bag"/> </g>
</svg>