<!DOCTYPE svg PUBLIC "-//W3C//DTD SVG 1.1//EN" "http://www.w3.org/Graphics/SVG/1.1/DTD/svg11.dtd">
<!-- Uploaded to: SVG Repo, www.svgrepo.com, Transformed by: SVG Repo Mixer Tools -->
<svg width="800px" height="800px" viewBox="-6.4 -6.4 76.80 76.80" enable-background="new 0 0 64 64" version="1.1" xml:space="preserve" xmlns="http://www.w3.org/2000/svg" xmlns:xlink="http://www.w3.org/1999/xlink" fill="#000000" transform="rotate(0)matrix(1, 0, 0, 1, 0, 0)" stroke="#000000" stroke-width="1.92">
<g id="SVGRepo_bgCarrier" stroke-width="0">
<rect x="-6.4" y="-6.4" width="76.80" height="76.80" rx="15.36" fill="#7ed0ec" strokewidth="0"/>
</g>
<g id="SVGRepo_tracerCarrier" stroke-linecap="round" stroke-linejoin="round" stroke="#CCCCCC" stroke-width="0.128"/>
<g id="SVGRepo_iconCarrier"> <g id="Home"/> <g id="Camera"/> <g id="Mail"/> <g id="Print"/> <g id="Save"/> <g id="Folder"/> <g id="Search"/> <g id="User"/> <g id="Pin"/> <g id="Calendar"> <g> <g> <path d="M62,10v12c0,1.1-0.9,2-2,2h-1v36c0,1.1-0.9,2-2,2H7c-1.1,0-2-0.9-2-2V24H4c-1.1,0-2-0.9-2-2V10 c0-1.1,0.9-2,2-2h12V4c0-1.1,0.9-2,2-2s2,0.9,2,2v4h24V4c0-1.1,0.9-2,2-2s2,0.9,2,2v4h12C61.1,8,62,8.9,62,10z" fill="#E92662"/> </g> </g> <g> <g> <path d="M59,24v36c0,1.1-0.9,2-2,2H7c-1.1,0-2-0.9-2-2V24H59z" fill="#FE9803"/> </g> </g> <g> <g> <path d="M20,4v10c0,1.1-0.9,2-2,2s-2-0.9-2-2V4c0-1.1,0.9-2,2-2S20,2.9,20,4z" fill="#673AB7"/> </g> </g> <g> <path d="M48,4v10c0,1.1-0.9,2-2,2s-2-0.9-2-2V4c0-1.1,0.9-2,2-2S48,2.9,48,4z" fill="#673AB7"/> </g> </g> <g id="Gallery"/> <g id="time"/> <g id="Pin_1_"/> <g id="Setting"/> <g id="Player"/> <g id="Lock"/> <g id="Trash_Can"/> <g id="Notification"/> <g id="Record"/> <g id="Shopping_Bag"/> </g>
</svg>