<?xml version="1.0" encoding="UTF-8"?>
<!DOCTYPE svg PUBLIC "-//W3C//DTD SVG 1.1//EN" "http://www.w3.org/Graphics/SVG/1.1/DTD/svg11.dtd">
<svg xmlns="http://www.w3.org/2000/svg" version="1.1" width="96px" height="96px" style="shape-rendering:geometricPrecision; text-rendering:geometricPrecision; image-rendering:optimizeQuality; fill-rule:evenodd; clip-rule:evenodd" xmlns:xlink="http://www.w3.org/1999/xlink">
<g><path style="opacity:0.806" fill="#01a3ff" d="M 21.5,3.5 C 38.8365,3.33339 56.1699,3.50006 73.5,4C 82.6667,6.5 88.5,12.3333 91,21.5C 91.6667,38.8333 91.6667,56.1667 91,73.5C 88.5265,82.6402 82.6931,88.4736 73.5,91C 56.1667,91.6667 38.8333,91.6667 21.5,91C 12.3333,88.5 6.5,82.6667 4,73.5C 3.33333,56.1667 3.33333,38.8333 4,21.5C 6.68337,12.318 12.5167,6.318 21.5,3.5 Z M 86.5,24.5 C 84.5918,21.0385 81.9252,20.2052 78.5,22C 67.9645,32.3683 57.6312,42.8683 47.5,53.5C 43.8691,56.6293 40.3691,59.9626 37,63.5C 30.5,57 24,50.5 17.5,44C 11.3333,42.1667 9.16667,44.3333 11,50.5C 19.0896,59.2615 27.7563,67.2615 37,74.5C 41.5942,72.0746 45.4275,68.7412 48.5,64.5C 61.9174,52.0846 74.5841,39.0846 86.5,25.5C 86.6666,41.5035 86.4999,57.5035 86,73.5C 83.8333,79.6667 79.6667,83.8333 73.5,86C 55.1009,86.9602 36.7676,86.6269 18.5,85C 13.8558,82.3585 10.6891,78.5252 9,73.5C 8.83333,64.8333 8.66667,56.1667 8.5,47.5C 8.37192,37.7631 8.87192,28.0964 10,18.5C 12.6415,13.8558 16.4748,10.6891 21.5,9C 38.8333,8.33333 56.1667,8.33333 73.5,9C 80.937,11.6007 85.2703,16.7673 86.5,24.5 Z"/></g>
<g><path style="opacity:0.971" fill="#2095f4" d="M 86.5,24.5 C 86.5,24.8333 86.5,25.1667 86.5,25.5C 74.5841,39.0846 61.9174,52.0846 48.5,64.5C 47.5184,61.0381 47.185,57.3714 47.5,53.5C 57.6312,42.8683 67.9645,32.3683 78.5,22C 81.9252,20.2052 84.5918,21.0385 86.5,24.5 Z"/></g>
<g><path style="opacity:1" fill="#1e86d7" d="M 47.5,53.5 C 47.185,57.3714 47.5184,61.0381 48.5,64.5C 45.4275,68.7412 41.5942,72.0746 37,74.5C 27.7563,67.2615 19.0896,59.2615 11,50.5C 9.16667,44.3333 11.3333,42.1667 17.5,44C 24,50.5 30.5,57 37,63.5C 40.3691,59.9626 43.8691,56.6293 47.5,53.5 Z"/></g>
</svg>
