<?xml version="1.0" encoding="UTF-8"?>
<!DOCTYPE svg PUBLIC "-//W3C//DTD SVG 1.1//EN" "http://www.w3.org/Graphics/SVG/1.1/DTD/svg11.dtd">
<svg xmlns="http://www.w3.org/2000/svg" version="1.1" width="67px" height="67px" style="shape-rendering:geometricPrecision; text-rendering:geometricPrecision; image-rendering:optimizeQuality; fill-rule:evenodd; clip-rule:evenodd" xmlns:xlink="http://www.w3.org/1999/xlink">
<g><path style="opacity:0.988" fill="#86c231" d="M 66.5,28.5 C 66.5,31.8333 66.5,35.1667 66.5,38.5C 62.8206,53.5127 53.4873,62.846 38.5,66.5C 34.8333,66.5 31.1667,66.5 27.5,66.5C 11.1393,62.4744 1.80596,52.141 -0.5,35.5C -0.5,34.1667 -0.5,32.8333 -0.5,31.5C 5.36231,5.38948 21.3623,-4.11052 47.5,3C 57.8837,8.54159 64.2171,17.0416 66.5,28.5 Z M 17.5,19.5 C 22.1001,20.4821 22.6001,22.4821 19,25.5C 16.4077,23.9917 15.9077,21.9917 17.5,19.5 Z M 28.5,19.5 C 35.175,19.3337 41.8417,19.5004 48.5,20C 50.3937,21.0793 50.727,22.4126 49.5,24C 42.1667,24.6667 34.8333,24.6667 27.5,24C 26.4186,22.2894 26.752,20.7894 28.5,19.5 Z M 17.5,30.5 C 21.1612,30.3501 22.1612,31.8501 20.5,35C 19.2068,35.49 17.8734,35.6567 16.5,35.5C 16.366,33.7085 16.6993,32.0418 17.5,30.5 Z M 28.5,30.5 C 35.175,30.3337 41.8417,30.5004 48.5,31C 50.3937,32.0793 50.727,33.4126 49.5,35C 42.1667,35.6667 34.8333,35.6667 27.5,35C 26.4186,33.2894 26.752,31.7894 28.5,30.5 Z M 17.5,41.5 C 21.1612,41.3501 22.1612,42.8501 20.5,46C 19.2068,46.49 17.8734,46.6567 16.5,46.5C 16.366,44.7085 16.6993,43.0418 17.5,41.5 Z M 28.5,41.5 C 35.175,41.3337 41.8417,41.5004 48.5,42C 50.3937,43.0793 50.727,44.4126 49.5,46C 42.1667,46.6667 34.8333,46.6667 27.5,46C 26.4186,44.2894 26.752,42.7894 28.5,41.5 Z"/></g>
</svg>
